<mxfile host="app.diagrams.net" agent="Mozilla/5.0 (Windows NT 10.0; Win64; x64; rv:123.0) Gecko/20100101 Firefox/123.0" version="26.0.2">
  <diagram id="piDafpqhtRUU5qUU-vj8" name="Page-1">
    <mxGraphModel dx="3434" dy="1407" grid="1" gridSize="10" guides="1" tooltips="1" connect="1" arrows="1" fold="1" page="1" pageScale="1" pageWidth="827" pageHeight="1169" math="0" shadow="0">
      <root>
        <mxCell id="0" />
        <mxCell id="1" parent="0" />
        <mxCell id="8962rQQDY3VNNf6We3Pp-1" value="" style="strokeWidth=1;shadow=0;dashed=0;align=center;html=1;shape=mxgraph.mockup.containers.browserWindow;rSize=0;strokeColor2=#008cff;strokeColor3=#c4c4c4;mainText=,;recursiveResize=0;strokeColor=#FFFFFF;fontColor=#FFFFFF;" parent="1" vertex="1">
          <mxGeometry y="130" width="1150" height="720" as="geometry" />
        </mxCell>
        <mxCell id="8962rQQDY3VNNf6We3Pp-2" value="Page 1" style="strokeWidth=1;shadow=0;dashed=0;align=center;html=1;shape=mxgraph.mockup.containers.anchor;fontSize=17;fontColor=#666666;align=left;" parent="8962rQQDY3VNNf6We3Pp-1" vertex="1">
          <mxGeometry x="60" y="12" width="110" height="26" as="geometry" />
        </mxCell>
        <mxCell id="8962rQQDY3VNNf6We3Pp-3" value="https://www.prestabanco.com/home" style="strokeWidth=1;shadow=0;dashed=0;align=center;html=1;shape=mxgraph.mockup.containers.anchor;rSize=0;fontSize=17;fontColor=#666666;align=left;" parent="8962rQQDY3VNNf6We3Pp-1" vertex="1">
          <mxGeometry x="130" y="60" width="250" height="26" as="geometry" />
        </mxCell>
        <mxCell id="tBvuIu0EhedEx3ogcRIf-3" value="&lt;span style=&quot;color: rgb(255, 255, 255);&quot;&gt;&amp;nbsp; PrestaBanco&lt;span style=&quot;white-space: pre;&quot;&gt;&#x9;&lt;/span&gt;Customer&#39;s portal&lt;span style=&quot;white-space: pre;&quot;&gt;&#x9;&lt;span style=&quot;white-space: pre;&quot;&gt;&#x9;&lt;/span&gt;&lt;/span&gt;Executive&#39;s portal &lt;br&gt;&lt;/span&gt;" style="rounded=0;whiteSpace=wrap;html=1;fillColor=light-dark(#0080ff, #1d293b);strokeColor=#6c8ebf;align=left;" parent="8962rQQDY3VNNf6We3Pp-1" vertex="1">
          <mxGeometry y="110" width="1150" height="40" as="geometry" />
        </mxCell>
        <mxCell id="tBvuIu0EhedEx3ogcRIf-12" value="BLABLABLA" style="shape=rect;strokeColor=none;fillColor=none;fontSize=12;fontColor=#2196F3;dashed=0;" parent="8962rQQDY3VNNf6We3Pp-1" vertex="1">
          <mxGeometry x="180" y="420" width="75" height="40" as="geometry" />
        </mxCell>
        <mxCell id="tBvuIu0EhedEx3ogcRIf-24" value="BLABLABLA" style="shape=rect;strokeColor=none;fillColor=none;fontSize=12;fontColor=#2196F3;dashed=0;" parent="8962rQQDY3VNNf6We3Pp-1" vertex="1">
          <mxGeometry x="180" y="250" width="75" height="40" as="geometry" />
        </mxCell>
        <mxCell id="tBvuIu0EhedEx3ogcRIf-25" value="&lt;div&gt;BLABLABLABLABLABLABLABLABLABLABLABLA&lt;/div&gt;&lt;div&gt;BLABLABLABLABLABLABLABLABLABLABLABLA&lt;/div&gt;&lt;div&gt;BLABLABLABLABLABLABLABLABLABLABLABLA&lt;/div&gt;&lt;div&gt;BLABLABLABLABLABLABLABLABLABLABLABLA&lt;/div&gt;" style="shape=rect;strokeColor=none;fillColor=none;fontSize=12;fontColor=light-dark(#000000,#268BDB);dashed=0;align=left;verticalAlign=top;html=1;" parent="8962rQQDY3VNNf6We3Pp-1" vertex="1">
          <mxGeometry x="180" y="300" width="270" height="110" as="geometry" />
        </mxCell>
        <mxCell id="tBvuIu0EhedEx3ogcRIf-26" value="&lt;div&gt;BLABLABLABLABLABLABLABLABLABLABLABLA&lt;/div&gt;&lt;div&gt;BLABLABLABLABLABLABLABLABLABLABLABLA&lt;/div&gt;&lt;div&gt;BLABLABLABLABLABLABLABLABLABLABLABLA&lt;/div&gt;&lt;div&gt;BLABLABLABLABLABLABLABLABLABLABLABLA&lt;/div&gt;" style="shape=rect;strokeColor=none;fillColor=none;fontSize=12;fontColor=light-dark(#000000,#268BDB);dashed=0;align=left;verticalAlign=top;html=1;" parent="8962rQQDY3VNNf6We3Pp-1" vertex="1">
          <mxGeometry x="180" y="480" width="270" height="110" as="geometry" />
        </mxCell>
        <mxCell id="tBvuIu0EhedEx3ogcRIf-27" value="" style="endArrow=classic;html=1;rounded=0;entryX=0.11;entryY=1.025;entryDx=0;entryDy=0;entryPerimeter=0;fontStyle=0;strokeWidth=6;exitX=0.002;exitY=0.488;exitDx=0;exitDy=0;exitPerimeter=0;" parent="8962rQQDY3VNNf6We3Pp-1" source="8962rQQDY3VNNf6We3Pp-1" target="tBvuIu0EhedEx3ogcRIf-3" edge="1">
          <mxGeometry width="50" height="50" relative="1" as="geometry">
            <mxPoint x="-160" y="250" as="sourcePoint" />
            <mxPoint x="-130" y="190" as="targetPoint" />
          </mxGeometry>
        </mxCell>
        <mxCell id="8962rQQDY3VNNf6We3Pp-30" value="" style="shape=rect;fillColor=#ffffff;strokeColor=#eeeeee;shadow=0;fontSize=13;fontColor=#0066CC;" parent="1" vertex="1">
          <mxGeometry x="-320" y="1600" width="300" height="40" as="geometry" />
        </mxCell>
        <mxCell id="8962rQQDY3VNNf6We3Pp-31" value="BUTTON" style="shape=rect;strokeColor=none;fillColor=none;fontSize=12;fontColor=#2196F3;dashed=0;" parent="8962rQQDY3VNNf6We3Pp-30" vertex="1">
          <mxGeometry width="75" height="40" as="geometry" />
        </mxCell>
        <mxCell id="8962rQQDY3VNNf6We3Pp-32" value="BUTTON" style="shape=rect;strokeColor=none;fillColor=none;fontSize=12;fontColor=#2196F3;dashed=0;" parent="8962rQQDY3VNNf6We3Pp-30" vertex="1">
          <mxGeometry x="75" width="75" height="40" as="geometry" />
        </mxCell>
        <mxCell id="8962rQQDY3VNNf6We3Pp-33" value="BUTTON" style="shape=rect;strokeColor=none;fillColor=none;fontSize=12;fontColor=#2196F3;dashed=0;" parent="8962rQQDY3VNNf6We3Pp-30" vertex="1">
          <mxGeometry x="150" width="75" height="40" as="geometry" />
        </mxCell>
        <mxCell id="8962rQQDY3VNNf6We3Pp-14" value="&lt;div&gt;Calculate Loan&lt;/div&gt;" style="rounded=1;align=center;strokeColor=none;html=1;fontColor=#ffffff;fontSize=12;fillColor=#008CFF;" parent="1" vertex="1">
          <mxGeometry x="-240" y="1530" width="118" height="33" as="geometry" />
        </mxCell>
        <mxCell id="8962rQQDY3VNNf6We3Pp-34" value="BUTTON" style="shape=rect;strokeColor=none;fillColor=none;fontSize=12;fontColor=#2196F3;dashed=0;" parent="1" vertex="1">
          <mxGeometry x="-207.5" y="1400" width="75" height="40" as="geometry" />
        </mxCell>
        <mxCell id="tBvuIu0EhedEx3ogcRIf-14" value="" style="strokeWidth=1;shadow=0;dashed=0;align=center;html=1;shape=mxgraph.mockup.containers.browserWindow;rSize=0;strokeColor2=#008cff;strokeColor3=#c4c4c4;mainText=,;recursiveResize=0;fillColor=#f5f5f5;fontColor=#333333;strokeColor=#666666;" parent="1" vertex="1">
          <mxGeometry y="850" width="1150" height="720" as="geometry" />
        </mxCell>
        <mxCell id="tBvuIu0EhedEx3ogcRIf-15" value="Page 2" style="strokeWidth=1;shadow=0;dashed=0;align=center;html=1;shape=mxgraph.mockup.containers.anchor;fontSize=17;fontColor=#666666;align=left;" parent="tBvuIu0EhedEx3ogcRIf-14" vertex="1">
          <mxGeometry x="60" y="12" width="110" height="26" as="geometry" />
        </mxCell>
        <mxCell id="tBvuIu0EhedEx3ogcRIf-16" value="https://www.prestabanco.com/customer/home" style="strokeWidth=1;shadow=0;dashed=0;align=center;html=1;shape=mxgraph.mockup.containers.anchor;rSize=0;fontSize=17;fontColor=#666666;align=left;" parent="tBvuIu0EhedEx3ogcRIf-14" vertex="1">
          <mxGeometry x="130" y="60" width="340" height="26" as="geometry" />
        </mxCell>
        <mxCell id="tBvuIu0EhedEx3ogcRIf-17" value="&lt;span style=&quot;color: rgb(255, 255, 255);&quot;&gt;&amp;nbsp; PrestaBanco&lt;span style=&quot;white-space: pre;&quot;&gt;&#x9;Simulate&lt;span style=&quot;white-space: pre;&quot;&gt;&#x9;&lt;/span&gt;Login&lt;span style=&quot;white-space: pre;&quot;&gt;&#x9;&lt;/span&gt;Register&lt;/span&gt; &lt;br&gt;&lt;/span&gt;" style="rounded=0;whiteSpace=wrap;html=1;fillColor=light-dark(#0080ff, #1d293b);strokeColor=#6c8ebf;align=left;" parent="tBvuIu0EhedEx3ogcRIf-14" vertex="1">
          <mxGeometry y="110" width="1150" height="40" as="geometry" />
        </mxCell>
        <mxCell id="tBvuIu0EhedEx3ogcRIf-18" value="PRESTANBANCO CUSTOMER&#39;S SECTION" style="shape=rect;strokeColor=none;fillColor=none;fontSize=12;fontColor=#2196F3;dashed=0;" parent="tBvuIu0EhedEx3ogcRIf-14" vertex="1">
          <mxGeometry x="400" y="240" width="270" height="100" as="geometry" />
        </mxCell>
        <mxCell id="tBvuIu0EhedEx3ogcRIf-28" value="" style="endArrow=classic;html=1;rounded=0;entryX=0.11;entryY=1.025;entryDx=0;entryDy=0;entryPerimeter=0;fontStyle=0;strokeWidth=6;exitX=0.002;exitY=0.488;exitDx=0;exitDy=0;exitPerimeter=0;" parent="tBvuIu0EhedEx3ogcRIf-14" edge="1">
          <mxGeometry width="50" height="50" relative="1" as="geometry">
            <mxPoint x="-20" y="350" as="sourcePoint" />
            <mxPoint x="105" y="150" as="targetPoint" />
          </mxGeometry>
        </mxCell>
        <mxCell id="tBvuIu0EhedEx3ogcRIf-29" value="&lt;div&gt;BLABLABLABLABLABLABLABLABLABLABLABLA&lt;/div&gt;&lt;div&gt;BLABLABLABLABLABLABLABLABLABLABLABLA&lt;/div&gt;&lt;div&gt;BLABLABLABLABLABLABLABLABLABLABLABLA&lt;/div&gt;&lt;div&gt;BLABLABLABLABLABLABLABLABLABLABLABLA&lt;/div&gt;" style="shape=rect;strokeColor=none;fillColor=none;fontSize=12;fontColor=light-dark(#000000,#268BDB);dashed=0;align=left;verticalAlign=top;html=1;" parent="tBvuIu0EhedEx3ogcRIf-14" vertex="1">
          <mxGeometry x="400" y="330" width="270" height="110" as="geometry" />
        </mxCell>
        <mxCell id="tBvuIu0EhedEx3ogcRIf-19" value="" style="strokeWidth=1;shadow=0;dashed=0;align=center;html=1;shape=mxgraph.mockup.containers.browserWindow;rSize=0;strokeColor2=#008cff;strokeColor3=#c4c4c4;mainText=,;recursiveResize=0;strokeColor=#FFFFFF;fontColor=#FFFFFF;" parent="1" vertex="1">
          <mxGeometry y="1550" width="1150" height="720" as="geometry" />
        </mxCell>
        <mxCell id="tBvuIu0EhedEx3ogcRIf-20" value="Page 3" style="strokeWidth=1;shadow=0;dashed=0;align=center;html=1;shape=mxgraph.mockup.containers.anchor;fontSize=17;fontColor=#666666;align=left;" parent="tBvuIu0EhedEx3ogcRIf-19" vertex="1">
          <mxGeometry x="60" y="12" width="110" height="26" as="geometry" />
        </mxCell>
        <mxCell id="tBvuIu0EhedEx3ogcRIf-21" value="https://www.prestabanco.com/customer/simulation" style="strokeWidth=1;shadow=0;dashed=0;align=center;html=1;shape=mxgraph.mockup.containers.anchor;rSize=0;fontSize=17;fontColor=#666666;align=left;" parent="tBvuIu0EhedEx3ogcRIf-19" vertex="1">
          <mxGeometry x="130" y="60" width="370" height="26" as="geometry" />
        </mxCell>
        <mxCell id="tBvuIu0EhedEx3ogcRIf-30" value="&lt;span style=&quot;color: rgb(255, 255, 255);&quot;&gt;&amp;nbsp; PrestaBanco&lt;span style=&quot;white-space: pre;&quot;&gt;&#x9;Simulate&lt;span style=&quot;white-space: pre;&quot;&gt;&#x9;&lt;/span&gt;Login&lt;span style=&quot;white-space: pre;&quot;&gt;&#x9;&lt;/span&gt;Register&lt;/span&gt; &lt;br&gt;&lt;/span&gt;" style="rounded=0;whiteSpace=wrap;html=1;fillColor=light-dark(#0080ff, #1d293b);strokeColor=#6c8ebf;align=left;" parent="tBvuIu0EhedEx3ogcRIf-19" vertex="1">
          <mxGeometry y="110" width="1150" height="40" as="geometry" />
        </mxCell>
        <mxCell id="tBvuIu0EhedEx3ogcRIf-1" value="" style="whiteSpace=wrap;html=1;aspect=fixed;rounded=0;glass=0;shadow=0;" parent="tBvuIu0EhedEx3ogcRIf-19" vertex="1">
          <mxGeometry x="220" y="260" width="320" height="320" as="geometry" />
        </mxCell>
        <mxCell id="tBvuIu0EhedEx3ogcRIf-23" value="Simulation" style="shape=rect;strokeColor=none;fillColor=none;fontSize=12;fontColor=#000000;dashed=0;" parent="tBvuIu0EhedEx3ogcRIf-19" vertex="1">
          <mxGeometry x="342.5" y="260" width="75" height="40" as="geometry" />
        </mxCell>
        <mxCell id="tBvuIu0EhedEx3ogcRIf-33" value="" style="whiteSpace=wrap;html=1;aspect=fixed;rounded=0;glass=0;" parent="tBvuIu0EhedEx3ogcRIf-19" vertex="1">
          <mxGeometry x="620" y="260" width="320" height="320" as="geometry" />
        </mxCell>
        <mxCell id="k5UiWBhjMKIJhFkFpbOg-1" value="Total Cost" style="shape=rect;strokeColor=none;fillColor=none;fontSize=12;fontColor=#000000;dashed=0;" vertex="1" parent="tBvuIu0EhedEx3ogcRIf-19">
          <mxGeometry x="742.5" y="260" width="75" height="40" as="geometry" />
        </mxCell>
        <mxCell id="k5UiWBhjMKIJhFkFpbOg-3" value="&lt;div&gt;&lt;font style=&quot;font-size: 11px;&quot;&gt;&lt;font style=&quot;font-size: 10px;&quot;&gt;&amp;nbsp;&amp;nbsp;&amp;nbsp; Property Value&lt;/font&gt;&lt;br&gt;&lt;/font&gt;&lt;/div&gt;" style="rounded=1;whiteSpace=wrap;html=1;align=left;" vertex="1" parent="tBvuIu0EhedEx3ogcRIf-19">
          <mxGeometry x="260" y="370" width="240" height="40" as="geometry" />
        </mxCell>
        <mxCell id="8962rQQDY3VNNf6We3Pp-6" value="Loan Type" style="rounded=1;html=1;align=left;fontSize=10;spacingLeft=10" parent="tBvuIu0EhedEx3ogcRIf-19" vertex="1">
          <mxGeometry x="260" y="310" width="239.5" height="40" as="geometry" />
        </mxCell>
        <mxCell id="8962rQQDY3VNNf6We3Pp-7" value="" style="shape=triangle;direction=south;fillColor=#596780;strokeColor=none;html=1" parent="8962rQQDY3VNNf6We3Pp-6" vertex="1">
          <mxGeometry x="1" y="0.5" width="12" height="6" relative="1" as="geometry">
            <mxPoint x="-20" y="-3" as="offset" />
          </mxGeometry>
        </mxCell>
        <mxCell id="k5UiWBhjMKIJhFkFpbOg-6" value="&lt;div&gt;&lt;font style=&quot;font-size: 11px;&quot;&gt;&lt;font style=&quot;font-size: 10px;&quot;&gt;&amp;nbsp;&amp;nbsp;&amp;nbsp; Selected Time (years)&lt;/font&gt;&lt;br&gt;&lt;/font&gt;&lt;/div&gt;" style="rounded=1;whiteSpace=wrap;html=1;align=left;" vertex="1" parent="tBvuIu0EhedEx3ogcRIf-19">
          <mxGeometry x="260" y="430" width="240" height="40" as="geometry" />
        </mxCell>
        <mxCell id="k5UiWBhjMKIJhFkFpbOg-7" value="&lt;div&gt;&lt;font style=&quot;font-size: 11px;&quot;&gt;&lt;font style=&quot;font-size: 10px;&quot;&gt;&amp;nbsp;&amp;nbsp;&amp;nbsp; Interest Rate&lt;/font&gt;&lt;br&gt;&lt;/font&gt;&lt;/div&gt;" style="rounded=1;whiteSpace=wrap;html=1;align=left;" vertex="1" parent="tBvuIu0EhedEx3ogcRIf-19">
          <mxGeometry x="259.5" y="490" width="240" height="40" as="geometry" />
        </mxCell>
        <mxCell id="k5UiWBhjMKIJhFkFpbOg-8" value="&lt;div&gt;Calculate Total Cost&lt;br&gt;&lt;/div&gt;" style="rounded=1;align=center;strokeColor=none;html=1;fontColor=#ffffff;fontSize=12;fillColor=#008CFF;" vertex="1" parent="tBvuIu0EhedEx3ogcRIf-19">
          <mxGeometry x="730" y="540" width="118" height="30" as="geometry" />
        </mxCell>
        <mxCell id="k5UiWBhjMKIJhFkFpbOg-9" value="&lt;div&gt;&lt;font style=&quot;font-size: 11px;&quot;&gt;&lt;font style=&quot;font-size: 10px;&quot;&gt;&amp;nbsp;&amp;nbsp;&amp;nbsp; Interest Rate&lt;/font&gt;&lt;br&gt;&lt;/font&gt;&lt;/div&gt;" style="rounded=1;whiteSpace=wrap;html=1;align=left;" vertex="1" parent="tBvuIu0EhedEx3ogcRIf-19">
          <mxGeometry x="660" y="310" width="240" height="40" as="geometry" />
        </mxCell>
        <mxCell id="k5UiWBhjMKIJhFkFpbOg-10" value="&lt;div&gt;&lt;font style=&quot;font-size: 11px;&quot;&gt;&lt;font style=&quot;font-size: 10px;&quot;&gt;&amp;nbsp;&amp;nbsp;&amp;nbsp; Interest Rate&lt;/font&gt;&lt;br&gt;&lt;/font&gt;&lt;/div&gt;" style="rounded=1;whiteSpace=wrap;html=1;align=left;" vertex="1" parent="tBvuIu0EhedEx3ogcRIf-19">
          <mxGeometry x="660" y="380" width="240" height="40" as="geometry" />
        </mxCell>
        <mxCell id="k5UiWBhjMKIJhFkFpbOg-11" value="&lt;div&gt;&lt;font style=&quot;font-size: 11px;&quot;&gt;&lt;font style=&quot;font-size: 10px;&quot;&gt;&amp;nbsp;&amp;nbsp;&amp;nbsp; Interest Rate&lt;/font&gt;&lt;br&gt;&lt;/font&gt;&lt;/div&gt;" style="rounded=1;whiteSpace=wrap;html=1;align=left;" vertex="1" parent="tBvuIu0EhedEx3ogcRIf-19">
          <mxGeometry x="660" y="450" width="240" height="40" as="geometry" />
        </mxCell>
        <mxCell id="k5UiWBhjMKIJhFkFpbOg-12" value="&lt;div&gt;Calculate Loan&lt;/div&gt;" style="rounded=1;align=center;strokeColor=none;html=1;fontColor=#ffffff;fontSize=12;fillColor=#008CFF;" vertex="1" parent="tBvuIu0EhedEx3ogcRIf-19">
          <mxGeometry x="321" y="540" width="118" height="30" as="geometry" />
        </mxCell>
        <mxCell id="k5UiWBhjMKIJhFkFpbOg-13" value="" style="endArrow=classic;html=1;rounded=0;entryX=0.11;entryY=1.025;entryDx=0;entryDy=0;entryPerimeter=0;fontStyle=0;strokeWidth=6;" edge="1" parent="tBvuIu0EhedEx3ogcRIf-19">
          <mxGeometry width="50" height="50" relative="1" as="geometry">
            <mxPoint x="149.5" y="329.5" as="sourcePoint" />
            <mxPoint x="259.5" y="329.5" as="targetPoint" />
          </mxGeometry>
        </mxCell>
        <mxCell id="k5UiWBhjMKIJhFkFpbOg-14" value="" style="endArrow=classic;html=1;rounded=0;entryX=0.11;entryY=1.025;entryDx=0;entryDy=0;entryPerimeter=0;fontStyle=0;strokeWidth=6;" edge="1" parent="tBvuIu0EhedEx3ogcRIf-19">
          <mxGeometry width="50" height="50" relative="1" as="geometry">
            <mxPoint x="150" y="389.5" as="sourcePoint" />
            <mxPoint x="260" y="389.5" as="targetPoint" />
          </mxGeometry>
        </mxCell>
        <mxCell id="k5UiWBhjMKIJhFkFpbOg-15" value="" style="endArrow=classic;html=1;rounded=0;entryX=0.11;entryY=1.025;entryDx=0;entryDy=0;entryPerimeter=0;fontStyle=0;strokeWidth=6;" edge="1" parent="tBvuIu0EhedEx3ogcRIf-19">
          <mxGeometry width="50" height="50" relative="1" as="geometry">
            <mxPoint x="150" y="449.5" as="sourcePoint" />
            <mxPoint x="260" y="449.5" as="targetPoint" />
          </mxGeometry>
        </mxCell>
        <mxCell id="k5UiWBhjMKIJhFkFpbOg-17" value="" style="endArrow=classic;html=1;rounded=0;entryX=0.11;entryY=1.025;entryDx=0;entryDy=0;entryPerimeter=0;fontStyle=0;strokeWidth=6;" edge="1" parent="tBvuIu0EhedEx3ogcRIf-19">
          <mxGeometry width="50" height="50" relative="1" as="geometry">
            <mxPoint x="149.5" y="509.5" as="sourcePoint" />
            <mxPoint x="259.5" y="509.5" as="targetPoint" />
          </mxGeometry>
        </mxCell>
        <mxCell id="k5UiWBhjMKIJhFkFpbOg-18" value="" style="endArrow=classic;html=1;rounded=0;entryX=0.11;entryY=1.025;entryDx=0;entryDy=0;entryPerimeter=0;fontStyle=0;strokeWidth=6;" edge="1" parent="tBvuIu0EhedEx3ogcRIf-19">
          <mxGeometry width="50" height="50" relative="1" as="geometry">
            <mxPoint x="211" y="554.5" as="sourcePoint" />
            <mxPoint x="321" y="554.5" as="targetPoint" />
          </mxGeometry>
        </mxCell>
        <mxCell id="k5UiWBhjMKIJhFkFpbOg-20" value="Seleccionar tipo de préstamo" style="text;html=1;align=center;verticalAlign=middle;whiteSpace=wrap;rounded=0;fontStyle=1;fontSize=18;" vertex="1" parent="tBvuIu0EhedEx3ogcRIf-19">
          <mxGeometry x="30" y="291" width="110" height="59" as="geometry" />
        </mxCell>
        <mxCell id="k5UiWBhjMKIJhFkFpbOg-21" value="Ingresar valor de la propiedad" style="text;html=1;align=center;verticalAlign=middle;whiteSpace=wrap;rounded=0;fontStyle=1;fontSize=18;" vertex="1" parent="tBvuIu0EhedEx3ogcRIf-19">
          <mxGeometry x="30" y="360.5" width="110" height="59" as="geometry" />
        </mxCell>
        <mxCell id="k5UiWBhjMKIJhFkFpbOg-22" value="Ingresar años" style="text;html=1;align=center;verticalAlign=middle;whiteSpace=wrap;rounded=0;fontStyle=1;fontSize=18;" vertex="1" parent="tBvuIu0EhedEx3ogcRIf-19">
          <mxGeometry x="30" y="420.5" width="110" height="59" as="geometry" />
        </mxCell>
        <mxCell id="k5UiWBhjMKIJhFkFpbOg-23" value="Ingresar interés" style="text;html=1;align=center;verticalAlign=middle;whiteSpace=wrap;rounded=0;fontStyle=1;fontSize=18;" vertex="1" parent="tBvuIu0EhedEx3ogcRIf-19">
          <mxGeometry x="30" y="479.5" width="110" height="59" as="geometry" />
        </mxCell>
        <mxCell id="k5UiWBhjMKIJhFkFpbOg-24" value="Click" style="text;html=1;align=center;verticalAlign=middle;whiteSpace=wrap;rounded=0;fontStyle=1;fontSize=18;" vertex="1" parent="tBvuIu0EhedEx3ogcRIf-19">
          <mxGeometry x="100" y="525.5" width="110" height="59" as="geometry" />
        </mxCell>
        <mxCell id="tBvuIu0EhedEx3ogcRIf-31" value="Click" style="text;html=1;align=center;verticalAlign=middle;whiteSpace=wrap;rounded=0;fontStyle=1;fontSize=18;" parent="1" vertex="1">
          <mxGeometry x="-100" y="1100" width="110" height="59" as="geometry" />
        </mxCell>
        <mxCell id="tBvuIu0EhedEx3ogcRIf-32" value="Click" style="text;html=1;align=center;verticalAlign=middle;whiteSpace=wrap;rounded=0;fontStyle=1;fontSize=18;" parent="1" vertex="1">
          <mxGeometry x="-80" y="350" width="110" height="59" as="geometry" />
        </mxCell>
        <mxCell id="k5UiWBhjMKIJhFkFpbOg-4" value="Dropdown" style="rounded=1;fillColor=#F1F2F4;strokeColor=none;html=1;fontColor=#596780;align=left;fontSize=10;spacingLeft=10" vertex="1" parent="1">
          <mxGeometry x="-215" y="1200" width="90" height="33" as="geometry" />
        </mxCell>
        <mxCell id="k5UiWBhjMKIJhFkFpbOg-5" value="" style="shape=triangle;direction=south;fillColor=#596780;strokeColor=none;html=1" vertex="1" parent="k5UiWBhjMKIJhFkFpbOg-4">
          <mxGeometry x="1" y="0.5" width="12" height="6" relative="1" as="geometry">
            <mxPoint x="-20" y="-3" as="offset" />
          </mxGeometry>
        </mxCell>
      </root>
    </mxGraphModel>
  </diagram>
</mxfile>
